<?xml version="1.0" standalone="no"?>
<!DOCTYPE svg PUBLIC "-//W3C//DTD SVG 20010904//EN"
 "http://www.w3.org/TR/2001/REC-SVG-20010904/DTD/svg10.dtd">
<svg version="1.0" xmlns="http://www.w3.org/2000/svg"
 width="1181.000000pt" height="1181.000000pt" viewBox="0 0 1181.000000 1181.000000"
 preserveAspectRatio="xMidYMid meet">

<g transform="translate(0.000000,1181.000000) scale(0.100000,-0.100000)"
fill="#000000" stroke="none">
<path d="M3930 7000 l0 -685 -174 -150 -173 -149 -76 -1 c-66 0 -79 -3 -102
-25 -78 -72 -72 -189 12 -241 45 -28 125 -29 162 -2 49 37 73 83 69 136 l-3
47 192 168 193 167 0 541 c0 297 -3 615 -7 707 l-6 165 -44 4 -43 3 0 -685z
m-386 -1071 c18 -14 26 -30 26 -52 0 -38 -7 -50 -37 -66 -51 -27 -103 5 -103
64 0 36 36 75 70 75 10 0 29 -9 44 -21z"/>
<path d="M7862 7661 c-2 -33 -2 -33 -47 -29 l-45 3 0 -686 0 -686 188 -164
187 -164 5 -61 c8 -97 56 -145 145 -146 112 -2 184 118 131 220 -28 54 -70 74
-146 69 -61 -3 -67 -2 -101 27 -20 17 -97 84 -172 149 l-137 118 -3 692 c-1
381 -3 677 -5 658z m483 -1736 c14 -13 25 -36 25 -50 0 -14 -11 -37 -25 -50
-13 -14 -36 -25 -50 -25 -28 0 -75 40 -75 64 0 73 76 111 125 61z"/>
<path d="M3610 7271 l0 -410 -126 -108 c-75 -64 -132 -107 -142 -105 -67 14
-92 13 -130 -7 -138 -70 -87 -281 67 -281 89 0 145 57 148 150 1 62 -12 47
186 217 l97 84 0 268 c0 147 -3 343 -7 434 l-6 167 -44 0 -43 0 0 -409z m-280
-711 c30 -30 27 -83 -6 -109 -15 -12 -34 -21 -44 -21 -10 0 -29 9 -44 21 -52
41 -23 129 44 129 17 0 39 -9 50 -20z"/>
<path d="M4882 7675 c5 -8 -67 -10 -233 -7 -151 3 -239 1 -239 -5 0 -14 38
-194 42 -198 5 -5 400 -296 467 -344 36 -25 75 -55 88 -66 l23 -20 -124 -198
c-69 -109 -137 -219 -152 -244 l-27 -46 49 -46 c52 -48 281 -256 447 -405 l97
-88 258 89 257 90 3 54 c1 30 -1 59 -5 64 -6 9 -315 265 -406 336 -24 19 -31
-4 85 257 l91 203 -61 132 c-33 73 -72 157 -85 188 -28 63 -22 60 -167 74
-160 16 -248 52 -363 147 -28 24 -48 38 -45 33z"/>
<path d="M5521 7570 c87 -197 199 -466 199 -478 0 -7 -13 -39 -29 -71 -44 -85
-141 -317 -141 -334 0 -8 7 -18 16 -21 26 -10 658 -7 674 4 17 10 23 -8 -73
217 -36 83 -73 162 -81 176 -16 23 -13 31 60 203 102 243 156 376 152 379 -2
2 -186 5 -409 7 l-406 3 38 -85z"/>
<path d="M8182 7638 c-1 -14 -12 -18 -47 -18 l-45 0 0 -407 0 -408 141 -120
141 -120 -6 -38 c-8 -49 11 -94 58 -135 31 -27 44 -32 88 -32 64 0 110 28 138
86 25 50 25 68 1 120 -33 73 -106 108 -178 86 -33 -10 -36 -9 -106 51 -40 33
-94 81 -122 106 l-50 46 -5 400 c-3 220 -6 392 -8 383z m385 -1080 c14 -13 23
-33 23 -50 0 -36 -40 -78 -75 -78 -14 0 -37 11 -50 25 -69 68 31 170 102 103z"/>
<path d="M6803 7595 c-83 -58 -150 -81 -274 -95 -163 -18 -159 -16 -196 -90
-50 -102 -133 -297 -133 -312 0 -15 44 -119 129 -303 28 -60 51 -118 51 -127
0 -18 -14 -30 -267 -237 l-163 -133 0 -49 c0 -40 4 -51 23 -63 12 -7 129 -50
260 -95 204 -71 241 -80 255 -69 60 47 568 514 570 525 3 13 -67 131 -214 364
-41 63 -74 119 -74 125 0 5 20 23 43 40 149 108 280 204 398 291 l137 101 17
77 c9 42 15 78 13 80 -1 1 -118 5 -258 8 l-255 6 -62 -44z"/>
<path d="M4241 7306 c-8 -9 -13 -287 -17 -978 l-5 -964 123 -111 c68 -61 177
-160 243 -220 l120 -109 3 -88 3 -88 -40 -34 c-94 -81 -72 -215 43 -259 36
-14 50 -15 86 -5 121 33 153 172 59 262 l-39 37 0 110 c0 104 -1 110 -24 128
-14 10 -124 108 -245 218 l-221 200 0 942 c0 842 -2 943 -16 957 -19 20 -58
21 -73 2z m574 -2661 c28 -27 30 -42 14 -79 -16 -34 -57 -47 -96 -31 -27 12
-42 37 -43 73 0 22 48 62 75 62 14 0 37 -11 50 -25z"/>
<path d="M7480 7301 c-7 -13 -10 -329 -10 -953 l0 -934 -92 -85 c-51 -47 -162
-147 -245 -223 l-153 -138 0 -114 0 -113 -29 -16 c-68 -35 -93 -140 -48 -205
36 -54 71 -74 127 -74 56 0 91 20 128 74 40 59 21 161 -37 198 -39 25 -41 31
-37 122 4 78 7 87 33 109 15 13 124 111 241 218 l212 195 0 963 c0 863 -2 965
-16 979 -21 22 -61 20 -74 -3z m-402 -2651 c29 -27 29 -80 2 -105 -45 -41
-120 -10 -120 48 0 65 72 99 118 57z"/>
<path d="M4621 6457 c-7 -9 -11 -167 -12 -513 l-1 -499 266 -260 267 -260 -1
-365 0 -365 -28 -16 c-16 -9 -36 -32 -45 -51 -70 -147 81 -282 219 -197 88 54
83 199 -8 254 l-28 16 0 384 0 383 -270 262 -270 263 0 469 c0 304 -4 476 -10
489 -12 22 -62 26 -79 6z m632 -2359 c24 -28 21 -65 -8 -93 -30 -30 -54 -31
-89 -4 -36 29 -36 80 1 109 32 25 69 20 96 -12z"/>
<path d="M7096 6448 c-14 -20 -16 -83 -16 -493 l0 -470 -270 -258 -270 -258 0
-387 0 -387 -31 -17 c-38 -22 -73 -98 -65 -142 23 -121 162 -173 252 -94 71
63 70 156 -2 225 l-44 43 0 357 0 358 270 259 270 260 0 491 c0 533 0 535 -55
535 -13 0 -31 -10 -39 -22z m-443 -2350 c9 -11 17 -31 17 -45 0 -32 -42 -73
-75 -73 -32 0 -75 41 -75 73 0 67 89 97 133 45z"/>
<path d="M5780 6055 c-52 -19 -160 -58 -240 -87 -80 -28 -151 -56 -157 -61
-10 -7 -13 -62 -13 -216 0 -113 4 -211 8 -217 4 -5 104 -68 222 -138 118 -71
221 -134 228 -141 10 -9 13 -196 15 -958 l1 -946 -42 -36 c-89 -77 -73 -199
35 -254 35 -18 102 -13 140 10 39 24 73 84 73 129 0 43 -34 106 -70 127 l-30
17 0 952 0 951 233 141 232 140 3 220 2 219 -112 41 c-274 101 -394 142 -413
141 -11 0 -63 -16 -115 -34z m170 -2867 c43 -46 12 -118 -52 -118 -17 0 -40 7
-50 17 -23 20 -24 80 -1 105 23 25 77 24 103 -4z"/>
<path d="M4990 6050 c-19 -19 -20 -33 -20 -289 l0 -269 243 -223 c133 -122
253 -232 265 -244 l24 -22 2 -624 3 -624 -44 -40 c-73 -66 -77 -156 -9 -223
30 -31 43 -36 93 -40 49 -3 64 0 93 20 41 27 70 80 70 126 0 45 -34 107 -70
129 l-30 17 0 651 0 651 -157 145 c-87 80 -206 189 -265 242 l-107 98 -3 255
c-3 240 -4 257 -22 270 -27 19 -42 18 -66 -6z m617 -2402 c47 -44 16 -118 -49
-118 -42 0 -68 25 -68 67 0 65 69 96 117 51z"/>
<path d="M6737 6052 c-15 -16 -17 -50 -17 -263 0 -181 -3 -249 -12 -261 -7 -8
-98 -93 -203 -188 -104 -95 -220 -202 -257 -237 l-68 -65 0 -646 0 -645 -40
-34 c-77 -66 -77 -157 0 -227 35 -32 46 -36 93 -36 34 0 63 7 84 20 38 22 73
86 73 130 0 44 -35 107 -70 125 l-30 16 0 629 0 629 265 242 265 242 0 277 c0
256 -1 278 -18 293 -24 22 -45 21 -65 -1z m-450 -2404 c47 -44 15 -118 -51
-118 -41 0 -69 29 -69 72 0 61 74 89 120 46z"/>
<path d="M8770 2192 l0 -158 33 -32 c33 -32 34 -32 133 -32 100 0 100 0 132
33 31 32 32 35 32 128 0 94 0 95 -33 127 -33 32 -34 32 -135 32 l-102 0 0 30
c0 27 -3 30 -30 30 l-30 0 0 -158z m270 -62 l0 -100 -105 0 -105 0 0 100 0
100 105 0 105 0 0 -100z"/>
<path d="M2870 2130 l0 -160 30 0 30 0 0 65 0 65 90 0 90 0 0 -65 0 -65 30 0
30 0 0 62 c0 43 -5 67 -17 80 -15 17 -15 19 0 36 12 13 17 37 17 80 l0 62 -30
0 -30 0 0 -65 0 -65 -90 0 -90 0 0 65 0 65 -30 0 -30 0 0 -160z"/>
<path d="M3272 2257 c-31 -32 -32 -35 -32 -128 0 -94 0 -95 33 -127 33 -32 33
-32 138 -32 l105 0 32 33 c32 33 32 34 32 132 0 94 -1 100 -27 127 -26 27 -29
28 -138 28 l-111 0 -32 -33z m248 -127 l0 -100 -110 0 -110 0 0 100 0 100 110
0 110 0 0 -100z"/>
<path d="M3660 2260 l0 -30 135 0 135 0 0 -35 0 -35 -107 0 c-102 0 -108 -1
-135 -27 -25 -24 -28 -33 -28 -95 l0 -68 165 0 165 0 0 30 0 30 -135 0 -135 0
0 35 0 35 103 0 103 0 32 33 c43 44 43 83 -1 125 l-33 32 -132 0 -132 0 0 -30z"/>
<path d="M4092 2257 l-32 -33 0 -127 0 -127 30 0 30 0 0 130 0 130 55 0 55 0
0 -85 c0 -84 0 -85 25 -85 25 0 25 1 25 85 l0 85 55 0 55 0 0 -130 0 -130 30
0 30 0 0 128 0 128 -33 32 -33 32 -130 0 -130 0 -32 -33z"/>
<path d="M4530 2260 c0 -29 2 -30 45 -30 l45 0 0 -100 0 -100 -45 0 c-43 0
-45 -1 -45 -30 l0 -30 120 0 120 0 0 30 c0 29 -2 30 -45 30 l-45 0 0 100 0
100 45 0 c43 0 45 1 45 30 l0 30 -120 0 -120 0 0 -30z"/>
<path d="M4872 2257 l-32 -33 0 -127 0 -127 30 0 30 0 0 130 0 130 110 0 110
0 0 -130 0 -130 30 0 30 0 0 132 c0 130 0 132 -27 160 -26 27 -29 28 -138 28
l-111 0 -32 -33z"/>
<path d="M5287 2262 c-39 -41 -37 -88 6 -130 33 -32 34 -32 135 -32 l102 0 0
-35 0 -35 -135 0 -135 0 0 -30 0 -30 133 0 133 0 32 33 c43 44 43 83 -1 125
-33 32 -34 32 -135 32 l-102 0 0 35 0 35 135 0 135 0 0 30 0 30 -138 0 -138 0
-27 -28z"/>
<path d="M5660 2130 l0 -160 30 0 30 0 0 65 0 65 90 0 90 0 0 -65 c0 -63 1
-65 25 -65 24 0 25 2 25 68 0 40 -5 73 -12 80 -9 9 -9 15 0 24 7 7 12 40 12
80 0 66 -1 68 -25 68 -24 0 -25 -2 -25 -65 l0 -65 -90 0 -90 0 0 65 0 65 -30
0 -30 0 0 -160z"/>
<path d="M6030 2260 c0 -29 2 -30 45 -30 l45 0 0 -100 0 -100 -45 0 c-43 0
-45 -1 -45 -30 l0 -30 120 0 120 0 0 30 c0 29 -2 30 -45 30 l-45 0 0 100 0
100 45 0 c43 0 45 1 45 30 l0 30 -120 0 -120 0 0 -30z"/>
<path d="M6657 2262 c-27 -28 -27 -30 -27 -160 l0 -132 30 0 30 0 0 65 0 65
110 0 110 0 0 -65 0 -65 30 0 30 0 0 128 0 128 -33 32 -33 32 -110 0 c-108 0
-111 -1 -137 -28z m253 -67 l0 -35 -110 0 -110 0 0 35 0 35 110 0 110 0 0 -35z"/>
<path d="M7040 2260 c0 -29 2 -30 45 -30 l45 0 0 -100 0 -100 -45 0 c-43 0
-45 -1 -45 -30 l0 -30 120 0 120 0 0 30 c0 29 -2 30 -45 30 l-45 0 0 100 0
100 45 0 c43 0 45 1 45 30 l0 30 -120 0 -120 0 0 -30z"/>
<path d="M7672 2257 c-31 -32 -32 -35 -32 -128 0 -94 0 -95 33 -127 l33 -32
117 0 117 0 0 30 0 30 -120 0 -120 0 0 100 0 100 120 0 120 0 0 30 0 30 -118
0 -118 0 -32 -33z"/>
<path d="M8020 2162 l0 -128 33 -32 c32 -32 34 -32 130 -32 l97 0 0 30 0 30
-100 0 -100 0 0 130 0 130 -30 0 -30 0 0 -128z"/>
<path d="M8360 2157 c0 -133 0 -133 28 -160 27 -26 32 -27 138 -27 108 0 111
1 137 28 27 28 27 30 27 160 l0 132 -25 0 -25 0 0 -130 0 -130 -115 0 -115 0
0 130 0 130 -25 0 -25 0 0 -133z"/>
</g>
</svg>
